<?xml version="1.0" encoding="UTF-8"?>
<svg xmlns="http://www.w3.org/2000/svg" viewBox="0 0 512 512" width="512" height="512" role="img" aria-label="Glamour flower logo">
  <ellipse cx="256" cy="152" rx="44" ry="98" transform="rotate(0 256 256)" fill="#f2c43b"/>
  <ellipse cx="256" cy="152" rx="44" ry="98" transform="rotate(45 256 256)" fill="#f2c43b"/>
  <ellipse cx="256" cy="152" rx="44" ry="98" transform="rotate(90 256 256)" fill="#f2c43b"/>
  <ellipse cx="256" cy="152" rx="44" ry="98" transform="rotate(135 256 256)" fill="#f2c43b"/>
  <ellipse cx="256" cy="152" rx="44" ry="98" transform="rotate(180 256 256)" fill="#f2c43b"/>
  <ellipse cx="256" cy="152" rx="44" ry="98" transform="rotate(225 256 256)" fill="#f2c43b"/>
  <ellipse cx="256" cy="152" rx="44" ry="98" transform="rotate(270 256 256)" fill="#f2c43b"/>
  <ellipse cx="256" cy="152" rx="44" ry="98" transform="rotate(315 256 256)" fill="#f2c43b"/>
  <circle cx="256" cy="256" r="54" fill="#ffd85b"/>
</svg>
